<?xml version="1.0" ?><svg enable-background="new 0 0 24 24" height="50px" id="Layer_1" version="1.1" viewBox="0 0 24 24" width="50px" xml:space="preserve" xmlns="http://www.w3.org/2000/svg" xmlns:xlink="http://www.w3.org/1999/xlink"><g fill="#000"><path d="M12,0C6,6,2,8.5,2,14s4.5,10,10,10s10-4.5,10-10S18,6,12,0z M12,22c-4.4,0-8-3.6-8-8s5-8,8-11c3,3,8,6.6,8,11   S16.4,22,12,22z"/><path d="M17,9l-0.7,0.7c1.1,1.1,1.8,2.6,1.8,4.2s-0.7,3.2-1.8,4.2L17,19c1.3-1.3,2-3,2-5S18.2,10.3,17,9z"/></g></svg>
